<svg width="513" height="513" viewBox="0 0 513 513" fill="none" xmlns="http://www.w3.org/2000/svg">
<circle cx="256.5" cy="256.5" r="256.5" fill="#51B96A"/>
<path d="M375.213 254.792C278.138 209.05 167.745 223.938 122.003 238.277C111.201 242.383 110.354 252.884 111.28 257.621C111.719 261.369 112.893 264.341 114.478 266.68C121.063 276.398 135.318 272.991 146.798 270.542C282.795 241.521 366.568 293.719 374.575 297.888C382.915 302.23 396.417 300.256 401.579 288.413C401.642 288.269 401.703 288.125 401.761 287.981C407.714 273.254 389.583 261.563 375.213 254.792Z" fill="white"/>
<path d="M218.332 146.944C164.181 121.754 102.651 129.973 77.142 137.89C71.1122 140.159 70.6392 145.962 71.1565 148.58C72.3416 158.61 86.2772 156.543 96.2034 154.679C169.04 141.003 213.767 168.582 218.133 170.833C222.788 173.232 230.325 172.142 233.207 165.597C236.819 157.394 226.459 150.724 218.332 146.944Z" fill="white"/>
<path d="M427.332 161.944C373.181 136.754 311.651 144.973 286.142 152.89C280.112 155.159 279.639 160.962 280.157 163.58C281.342 173.61 295.277 171.543 305.203 169.679C378.04 156.003 422.767 183.582 427.133 185.833C431.788 188.232 439.325 187.142 442.207 180.597C445.819 172.394 435.459 165.724 427.332 161.944Z" fill="white"/>
<path d="M348.956 322.125C266.617 283.26 173.124 295.969 134.345 308.211C125.171 311.722 124.451 320.703 125.238 324.755C125.475 326.79 125.963 328.558 126.633 330.09C131.367 340.917 146.558 337.623 158.131 335.23C272.027 311.688 342.112 355.656 348.858 359.193C355.941 362.907 367.409 361.219 371.794 351.09C377.29 338.392 361.469 328.031 348.956 322.125Z" fill="white"/>
<path d="M328.987 380.876C257.289 346.835 175.904 357.976 142.139 368.708C134.149 371.787 133.522 379.663 134.207 383.216C134.307 384.08 134.458 384.889 134.654 385.646C137.628 397.163 153.541 394.255 165.205 391.923C263.019 372.365 323.144 410.338 328.973 413.416C335.142 416.673 345.13 415.192 348.949 406.31C353.737 395.174 339.937 386.074 328.987 380.876Z" fill="white"/>
</svg>
