<svg width="220" height="220" viewBox="0 0 220 220" fill="none" xmlns="http://www.w3.org/2000/svg">
<rect width="219.87" height="219.87" rx="53.355" fill="url(#paint0_linear_181_9)"/>
<g clip-path="url(#clip0_181_9)">
<rect x="49.544" y="49.5439" width="121.075" height="121.075" rx="60.5375" fill="white"/>
<circle cx="110.081" cy="110.081" r="60.5375" fill="white"/>
<path d="M146.234 96.4976C117.376 82.3072 84.1373 86.754 70.4821 91.0348C67.3041 92.2427 67.0549 95.3321 67.3275 96.7259C67.5119 98.3021 68.1388 99.412 68.9284 100.178C70.9166 102.107 74.0561 101.349 76.7606 100.748C117.371 91.7289 142.416 107.336 144.791 108.573C147.245 109.85 151.217 109.269 152.736 105.785C152.952 105.29 153.075 104.796 153.126 104.311C153.518 100.582 149.598 98.152 146.234 96.4976Z" fill="url(#paint1_linear_181_9)"/>
<path d="M137.685 115.908C113.356 104.224 85.5903 107.987 74.1133 111.61C71.4142 112.643 71.2025 115.285 71.434 116.477C71.5553 117.521 71.9018 118.326 72.3634 118.94C74.0388 121.169 77.3683 120.366 80.0938 119.775C114.203 112.37 135.22 125.558 137.225 126.609C139.309 127.702 142.683 127.205 143.973 124.225C144.037 124.076 144.092 123.928 144.138 123.779C145.243 120.191 141.07 117.534 137.685 115.908Z" fill="url(#paint2_linear_181_9)"/>
<path d="M131.379 132.988C110.285 122.973 86.3402 126.251 76.4064 129.408C74.0556 130.314 73.8712 132.631 74.0729 133.677C74.1499 134.344 74.3312 134.9 74.5796 135.361C75.9113 137.832 79.4281 137.03 82.1743 136.448C111.553 130.221 129.639 141.646 131.375 142.562C133.19 143.52 136.128 143.084 137.252 140.471C138.66 137.195 134.6 134.518 131.379 132.988Z" fill="url(#paint3_linear_181_9)"/>
</g>
<defs>
<linearGradient id="paint0_linear_181_9" x1="219.87" y1="109.935" x2="0" y2="109.935" gradientUnits="userSpaceOnUse">
<stop stop-color="#08C663"/>
<stop offset="1" stop-color="#009D3B"/>
</linearGradient>
<linearGradient id="paint1_linear_181_9" x1="110.199" y1="86.8342" x2="110.199" y2="109.194" gradientUnits="userSpaceOnUse">
<stop stop-color="#009D3B"/>
<stop offset="1" stop-color="#08C663"/>
</linearGradient>
<linearGradient id="paint2_linear_181_9" x1="107.846" y1="108.017" x2="107.846" y2="127.141" gradientUnits="userSpaceOnUse">
<stop stop-color="#009D3B"/>
<stop offset="1" stop-color="#08C663"/>
</linearGradient>
<linearGradient id="paint3_linear_181_9" x1="105.786" y1="126.258" x2="105.786" y2="143.028" gradientUnits="userSpaceOnUse">
<stop stop-color="#009D3B"/>
<stop offset="1" stop-color="#08C663"/>
</linearGradient>
<clipPath id="clip0_181_9">
<rect x="49.544" y="49.5439" width="121.075" height="121.075" rx="60.5375" fill="white"/>
</clipPath>
</defs>
</svg>
