<svg width="750" height="750" viewBox="0 0 750 750" fill="none" xmlns="http://www.w3.org/2000/svg">
<rect width="750" height="750" rx="182" fill="#00AB42"/>
<g clip-path="url(#clip0_136_153)">
<rect x="169" y="169" width="413" height="413" rx="206.5" fill="white"/>
<circle cx="375.5" cy="375.5" r="206.5" fill="white"/>
<path d="M498.819 329.163C400.383 280.759 287.002 295.927 240.422 310.529C229.582 314.649 228.732 325.188 229.661 329.942C230.29 335.319 232.429 339.105 235.122 341.718C241.904 348.299 252.614 345.713 261.839 343.664C400.365 312.897 485.795 366.134 493.898 370.353C502.268 374.711 515.818 372.73 520.999 360.844C521.735 359.157 522.155 357.47 522.329 355.816C523.668 343.097 510.296 334.807 498.819 329.163Z" fill="#00AB42"/>
<path d="M469.657 395.377C386.669 355.521 291.958 368.354 252.808 380.713C243.602 384.237 242.879 393.25 243.669 397.316C244.083 400.877 245.265 403.622 246.839 405.717C252.554 413.322 263.912 410.583 273.209 408.565C389.559 383.308 461.251 428.292 468.089 431.878C475.198 435.605 486.706 433.911 491.107 423.746C491.326 423.238 491.513 422.731 491.669 422.225C495.441 409.983 481.204 400.922 469.657 395.377Z" fill="#00AB42"/>
<path d="M448.147 453.638C376.193 419.475 294.516 430.656 260.631 441.427C252.612 444.517 251.983 452.421 252.671 455.986C252.933 458.263 253.552 460.159 254.399 461.732C258.942 470.162 270.938 467.425 280.306 465.44C380.519 444.197 442.214 483.169 448.133 486.294C454.324 489.563 464.348 488.077 468.181 479.163C472.986 467.987 459.136 458.855 448.147 453.638Z" fill="#00AB42"/>
</g>
<defs>
<clipPath id="clip0_136_153">
<rect x="169" y="169" width="413" height="413" rx="206.5" fill="white"/>
</clipPath>
</defs>
</svg>
