<svg width="750" height="750" viewBox="0 0 750 750" fill="none" xmlns="http://www.w3.org/2000/svg">
<rect width="750" height="750" rx="145" fill="#51B96A"/>
<g clip-path="url(#clip0_136_153)">
<rect x="118" y="119" width="513" height="513" rx="256.5" fill="white"/>
<circle cx="374.5" cy="375.5" r="256.5" fill="white"/>
<path d="M527.679 317.944C405.408 257.819 264.573 276.66 206.716 294.798C193.25 299.916 192.194 313.006 193.35 318.911C194.131 325.59 196.787 330.293 200.132 333.539C208.557 341.713 221.859 338.5 233.318 335.955C405.386 297.739 511.501 363.866 521.566 369.106C531.962 374.52 548.794 372.059 555.229 357.296C556.143 355.2 556.665 353.104 556.881 351.05C558.544 335.252 541.934 324.954 527.679 317.944Z" fill="#51B96A"/>
<path d="M491.455 400.189C388.373 350.684 270.729 366.624 222.101 381.975C210.665 386.352 209.768 397.548 210.749 402.599C211.263 407.021 212.731 410.431 214.687 413.033C221.785 422.48 235.893 419.077 247.441 416.571C391.963 385.199 481.014 441.075 489.508 445.529C498.338 450.158 512.633 448.054 518.099 435.428C518.372 434.797 518.603 434.167 518.797 433.538C523.483 418.333 505.798 407.077 491.455 400.189Z" fill="#51B96A"/>
<path d="M464.737 472.557C375.361 430.123 273.907 444.011 231.817 457.389C221.857 461.228 221.075 471.046 221.93 475.475C222.256 478.302 223.024 480.658 224.077 482.611C229.719 493.082 244.62 489.683 256.256 487.217C380.734 460.831 457.368 509.24 464.72 513.121C472.41 517.181 484.861 515.335 489.622 504.263C495.59 490.381 478.387 479.038 464.737 472.557Z" fill="#51B96A"/>
</g>
<defs>
<clipPath id="clip0_136_153">
<rect x="118" y="119" width="513" height="513" rx="256.5" fill="white"/>
</clipPath>
</defs>
</svg>
