<svg width="220" height="220" viewBox="0 0 220 220" fill="none" xmlns="http://www.w3.org/2000/svg">
<rect width="219.87" height="219.87" rx="53.355" fill="url(#paint0_linear_182_70)"/>
<g clip-path="url(#clip0_182_70)">
<rect x="49.5441" y="49.5439" width="121.075" height="121.075" rx="60.5375" fill="white"/>
<circle cx="110.082" cy="110.081" r="60.5375" fill="white"/>
<path d="M145.437 119.575C115.753 107.204 82.8548 113.707 69.4919 118.828C66.3951 120.231 66.3383 123.33 66.697 124.704C66.9789 126.266 67.6735 127.335 68.5092 128.05C70.6134 129.852 73.6998 128.901 76.3617 128.133C116.333 116.608 142.299 130.629 144.747 131.716C147.275 132.839 151.204 132.012 152.503 128.44C152.688 127.933 152.78 127.432 152.801 126.945C152.961 123.199 148.897 121.017 145.437 119.575Z" fill="url(#paint1_linear_182_70)"/>
<path d="M99.4656 83C101.053 83 102.609 83.4446 103.957 84.2832L119.698 94.0791C119.838 94.166 120.011 94.1782 120.162 94.1123L143.907 83.7139C144.982 83.2431 146.144 83 147.317 83H151C155.694 83 159.5 86.8056 159.5 91.5V104.5C159.5 105.328 158.828 106 158 106H147.596C146.768 106 146.096 105.328 146.096 104.5V90.96C146.096 90.5986 145.724 90.3565 145.393 90.5029L127.583 98.4014C127.212 98.5663 127.182 99.0812 127.531 99.2881L134.162 103.209C135.476 103.986 134.925 106 133.398 106H123.979C123.703 106 123.431 105.923 123.195 105.778L111.272 98.459C111.194 98.4108 111.103 98.3848 111.011 98.3848H80.1092C80.0108 98.3849 79.9147 98.4143 79.8328 98.4688L68.8865 105.749C68.6405 105.913 68.351 106 68.0555 106H58.3357C56.8477 106 56.268 104.066 57.5106 103.247L86.116 84.4023C87.5041 83.4879 89.1306 83.0001 90.7928 83H99.4656ZM95.2869 87.7012C95.1148 87.5807 94.8858 87.5807 94.7137 87.7012L86.2996 93.5908C85.8994 93.8712 86.098 94.5 86.5867 94.5H103.414C103.903 94.5 104.101 93.8713 103.701 93.5908L95.2869 87.7012Z" fill="#02A846"/>
</g>
<defs>
<linearGradient id="paint0_linear_182_70" x1="219.87" y1="109.935" x2="0" y2="109.935" gradientUnits="userSpaceOnUse">
<stop stop-color="#08C663"/>
<stop offset="1" stop-color="#009D3B"/>
</linearGradient>
<linearGradient id="paint1_linear_182_70" x1="108.872" y1="112.168" x2="110.261" y2="134.485" gradientUnits="userSpaceOnUse">
<stop stop-color="#009D3B"/>
<stop offset="1" stop-color="#08C663"/>
</linearGradient>
<clipPath id="clip0_182_70">
<rect x="49.5441" y="49.5439" width="121.075" height="121.075" rx="60.5375" fill="white"/>
</clipPath>
</defs>
</svg>
