<svg width="55" height="40" viewBox="0 0 55 40" fill="none" xmlns="http://www.w3.org/2000/svg">
<path d="M23.8254 0C24.4043 9.36648e-05 24.9314 0.33353 25.1799 0.856445L33.6574 18.7031C33.8237 19.0523 34.3061 19.0882 34.5227 18.7676L46.7453 0.661133C47.0241 0.248117 47.4902 0.00017393 47.9885 0H53.4572C54.2857 0 54.9572 0.671573 54.9572 1.5V38.5C54.9572 39.3284 54.2857 40 53.4572 40H48.9572C48.1289 39.9998 47.4572 39.3283 47.4572 38.5V14.3027C47.4572 13.8081 46.8156 13.6138 46.5412 14.0254L37.6955 27.2949C37.5962 27.4441 37.5841 27.6355 37.6643 27.7959L42.6809 37.8291C43.1795 38.8265 42.4541 40 41.3391 40H36.5852C36.0092 39.9997 35.4845 39.6694 35.2346 39.1504L29.2795 26.7832C29.1962 26.6103 29.0212 26.5002 28.8293 26.5H13.6067C13.4094 26.5003 13.2308 26.6166 13.1506 26.7969L7.67794 39.1094C7.43719 39.6508 6.90032 39.9998 6.30783 40H1.50216C0.414571 39.9998 -0.312147 38.8781 0.133021 37.8857L16.7356 0.885742C16.9774 0.346766 17.514 0.000109841 18.1047 0H23.8254ZM21.4123 8.49219C21.2341 8.10329 20.6814 8.10329 20.5031 8.49219L15.7824 18.792C15.6308 19.1231 15.8724 19.4999 16.2365 19.5H25.6779C26.0421 19.5 26.2845 19.1231 26.133 18.792L21.4123 8.49219Z" fill="black"/>
</svg>
